<?xml version="1.0" standalone="no"?>
<!DOCTYPE svg PUBLIC "-//W3C//DTD SVG 20010904//EN"
 "http://www.w3.org/TR/2001/REC-SVG-20010904/DTD/svg10.dtd">
<svg version="1.0" xmlns="http://www.w3.org/2000/svg"
 width="357.000000pt" height="357.000000pt" viewBox="0 0 357.000000 357.000000"
 preserveAspectRatio="xMidYMid meet">

<g transform="translate(0.000000,357.000000) scale(0.100000,-0.100000)"
fill="#000000" stroke="none">
<path d="M795 3560 c3 -5 8 -10 11 -10 2 0 4 5 4 10 0 6 -5 10 -11 10 -5 0 -7
-4 -4 -10z"/>
<path d="M1401 3504 c0 -11 3 -14 6 -6 3 7 2 16 -1 19 -3 4 -6 -2 -5 -13z"/>
<path d="M1414 3479 c-3 -6 -2 -15 4 -21 6 -6 12 -6 16 1 4 6 2 11 -4 11 -6 0
-8 5 -5 10 3 6 4 10 1 10 -3 0 -8 -5 -12 -11z"/>
<path d="M1991 3234 c0 -11 3 -14 6 -6 3 7 2 16 -1 19 -3 4 -6 -2 -5 -13z"/>
<path d="M1840 3084 c0 -8 5 -12 10 -9 6 4 8 11 5 16 -9 14 -15 11 -15 -7z"/>
<path d="M460 3031 c0 -16 5 -33 10 -36 6 -4 10 6 10 24 0 16 -4 33 -10 36 -6
4 -10 -6 -10 -24z"/>
<path d="M1860 3039 c0 -5 5 -7 10 -4 6 3 10 8 10 11 0 2 -4 4 -10 4 -5 0 -10
-5 -10 -11z"/>
<path d="M1890 2960 c0 -5 5 -10 11 -10 5 0 7 5 4 10 -3 6 -8 10 -11 10 -2 0
-4 -4 -4 -10z"/>
<path d="M3252 2927 c-24 -46 -28 -77 -11 -77 14 0 5 -116 -10 -134 -5 -6 -11
-29 -12 -50 -3 -33 0 -40 19 -47 12 -5 23 -6 23 -4 5 16 7 26 8 36 0 5 4 8 9
6 4 -3 8 18 10 46 2 29 5 61 8 72 4 16 3 17 -5 5 -7 -10 -10 15 -10 84 0 54
-2 100 -3 102 -2 2 -14 -16 -26 -39z"/>
<path d="M3171 2944 c0 -11 3 -14 6 -6 3 7 2 16 -1 19 -3 4 -6 -2 -5 -13z"/>
<path d="M3167 2873 c-4 -3 -6 -40 -5 -82 l1 -76 7 80 c6 87 6 88 -3 78z"/>
<path d="M1970 2801 c0 -25 6 -27 13 -6 4 8 2 17 -3 20 -6 4 -10 -3 -10 -14z"/>
<path d="M1856 2793 c-6 -14 -5 -15 5 -6 7 7 10 15 7 18 -3 3 -9 -2 -12 -12z"/>
<path d="M3221 2754 c0 -11 3 -14 6 -6 3 7 2 16 -1 19 -3 4 -6 -2 -5 -13z"/>
<path d="M3153 2686 c-10 -12 -11 -32 -4 -95 1 -11 5 -11 19 2 22 20 33 22 28
5 -1 -7 -1 -10 1 -5 3 4 14 7 26 8 18 1 16 2 -7 9 -16 5 -32 7 -36 5 -4 -2 -5
16 -4 40 3 47 -3 54 -23 31z"/>
<path d="M1592 2630 c-24 -10 -45 -51 -63 -119 -7 -31 -27 -61 -65 -101 -30
-31 -54 -62 -54 -68 0 -7 15 -12 34 -12 28 0 40 -7 62 -35 28 -37 52 -48 34
-16 -11 21 -4 51 11 51 6 0 5 -10 -2 -22 -10 -19 -9 -20 7 -13 40 16 52 16 89
1 35 -15 39 -15 51 1 7 10 14 22 14 26 0 5 12 7 28 5 20 -2 26 -8 24 -23 -13
-95 -13 -100 -2 -82 6 9 13 27 15 39 3 12 10 25 17 30 18 11 66 10 73 -2 3 -5
13 -7 23 -4 14 5 15 4 2 -5 -15 -10 -13 -12 13 -15 17 -2 21 -89 7 -158 -9
-41 -21 -64 -43 -85 -16 -15 -27 -21 -23 -13 5 8 -5 0 -22 -17 -43 -47 -76
-62 -117 -53 -61 14 -130 87 -145 152 -3 18 -11 32 -17 31 -5 -1 -8 10 -6 25
3 27 3 27 -9 -3 -15 -38 -35 -58 -49 -49 -8 4 -9 3 -5 -4 3 -6 -3 -16 -15 -22
-19 -11 -21 -19 -17 -70 2 -33 0 -57 -4 -54 -11 7 -69 -6 -64 -14 2 -4 -7 -7
-20 -7 -13 0 -24 5 -24 11 0 15 51 115 73 144 l19 25 -6 -25 c-5 -18 -2 -16
13 10 13 25 16 39 9 47 -8 10 -15 6 -31 -15 -12 -15 -27 -33 -34 -40 -7 -8
-10 -19 -6 -25 4 -7 -2 -5 -12 3 -10 8 -16 10 -12 3 4 -7 0 -16 -10 -22 -16
-9 -16 -12 -3 -22 13 -9 12 -10 -4 -5 -13 5 -17 2 -13 -9 7 -17 -18 -45 -39
-45 -8 0 -14 3 -14 6 0 9 23 48 37 62 7 7 13 20 13 28 0 8 5 12 11 9 6 -4 9
-1 8 6 -4 21 11 59 23 59 6 0 5 -6 -2 -15 -9 -11 -10 -19 -3 -26 7 -7 16 -2
27 16 9 14 13 25 9 24 -21 -4 -20 3 5 28 15 15 30 28 34 28 3 0 10 4 15 9 5 5
2 6 -6 1 -11 -6 -13 -2 -7 21 l7 29 -17 -25 c-9 -14 -34 -43 -55 -65 -20 -22
-63 -88 -94 -147 -37 -70 -68 -115 -90 -133 -19 -14 -35 -35 -35 -46 0 -11 -9
-38 -21 -61 -12 -24 -19 -53 -17 -69 4 -26 1 -30 -42 -44 -26 -9 -74 -17 -107
-19 -47 -3 -66 -10 -87 -29 -14 -13 -26 -31 -26 -38 0 -8 -18 -44 -39 -81 -21
-37 -36 -69 -33 -72 3 -3 -1 -7 -9 -7 -8 -1 -21 -3 -29 -4 -8 -1 -21 -3 -27
-4 -7 0 -13 -15 -13 -32 0 -24 4 -30 17 -27 10 2 19 14 21 26 4 29 35 26 40
-3 3 -11 10 -24 18 -28 28 -16 14 -28 -28 -25 -32 2 -42 0 -40 -11 2 -9 -3
-11 -13 -7 -9 3 -14 2 -11 -3 3 -5 -16 -14 -42 -21 -99 -25 -152 -56 -152 -86
0 -7 -13 -28 -28 -46 -25 -28 -34 -51 -52 -123 -1 -5 -2 -19 -1 -30 1 -16 3
-17 11 -5 26 42 34 -74 9 -130 -9 -19 -21 -46 -26 -59 -8 -21 -10 -22 -16 -7
-4 10 -3 15 3 11 6 -3 10 -2 10 3 0 6 -7 13 -16 16 -8 3 -12 10 -9 16 3 5 2
10 -3 10 -5 0 -7 13 -4 30 5 36 -13 40 -22 5 -4 -14 -11 -25 -16 -25 -6 0 -10
-5 -10 -11 0 -5 5 -7 10 -4 6 3 10 1 10 -4 0 -6 -7 -11 -16 -11 -8 0 -12 -4
-9 -10 3 -5 1 -10 -4 -10 -6 0 -11 5 -11 10 0 6 -7 10 -15 10 -10 0 -15 7 -13
17 2 11 -6 22 -19 28 -13 5 -23 17 -23 25 0 8 -7 2 -15 -14 -21 -41 -20 -96 3
-96 14 0 15 -2 2 -10 -14 -9 -7 -15 14 -11 5 1 6 -5 3 -13 -3 -8 1 -17 9 -20
23 -9 54 -7 54 3 0 5 7 12 16 15 14 5 15 4 4 -9 -11 -13 -8 -14 19 -11 34 4
38 -6 16 -44 -14 -25 -14 -25 -15 -2 0 18 -6 22 -30 22 -27 0 -29 -2 -24 -30
6 -29 5 -30 -27 -30 -26 0 -30 3 -19 10 34 22 -10 7 -77 -26 -46 -23 -84 -49
-103 -74 -17 -21 -40 -42 -50 -45 -18 -6 -20 -16 -20 -99 0 -110 13 -146 53
-146 15 0 27 5 27 10 0 6 5 10 11 10 5 0 7 -5 4 -10 -3 -6 3 -10 14 -10 10 0
21 -6 23 -12 3 -8 16 -3 38 15 24 21 43 28 69 27 20 -1 41 -1 46 0 32 7 91 0
100 -12 12 -16 55 -19 55 -4 0 18 70 14 71 -4 0 -10 3 -9 9 5 8 18 9 17 9 -7
1 -27 0 -28 -57 -28 -31 0 -72 -4 -90 -9 -24 -7 -42 -6 -66 4 -25 11 -36 11
-38 3 -3 -7 -48 -11 -141 -10 l-137 1 0 -115 0 -114 419 0 c391 0 420 1 424
18 4 16 5 16 6 0 1 -21 14 -23 33 -5 12 11 35 12 103 4 12 -1 26 8 37 24 15
24 20 26 57 19 23 -4 44 -3 50 3 11 11 3 39 -9 32 -5 -3 -11 -1 -15 5 -3 5
-14 10 -25 10 -10 0 -20 6 -23 14 -4 9 0 12 12 9 17 -4 19 7 26 108 5 79 10
108 16 96 7 -11 21 -16 45 -15 47 2 61 -13 45 -49 -9 -18 -13 -65 -12 -130 1
-62 -2 -104 -8 -108 -6 -3 -11 0 -11 7 0 10 -2 10 -9 -1 -14 -21 -2 -41 25
-41 13 0 24 3 24 8 0 4 9 101 20 216 l20 209 -30 40 c-30 42 -38 84 -21 116
13 24 114 101 133 101 38 0 78 -95 78 -188 l0 -35 25 23 c23 21 25 30 22 94
-1 53 1 70 11 68 6 -1 12 4 13 10 0 7 16 -20 35 -61 18 -40 31 -78 27 -85 -3
-6 -3 -8 2 -4 11 11 36 -12 28 -25 -3 -6 -1 -7 5 -3 7 4 12 31 12 60 0 46 3
54 21 59 12 3 18 10 14 17 -5 8 -11 7 -22 -2 -15 -12 -16 -7 -11 48 3 34 2 68
-3 75 -7 9 -8 4 -4 -16 5 -28 5 -28 -5 -6 -6 13 -8 33 -4 44 3 11 2 17 -3 14
-9 -6 -50 81 -45 95 1 5 -3 8 -9 8 -5 0 -7 5 -4 10 4 6 -1 23 -11 38 -35 51
-55 105 -44 116 5 5 10 18 10 29 0 10 4 15 10 12 6 -4 7 2 1 18 -5 13 -12 64
-16 113 -3 49 -11 94 -17 99 -11 11 -6 -66 12 -165 7 -39 6 -57 -2 -65 -8 -7
-9 -6 -4 2 4 7 -2 23 -13 35 -22 22 -27 57 -13 73 11 13 2 176 -9 169 -5 -3
-9 -1 -9 5 0 5 5 13 10 16 6 3 10 1 10 -4 0 -6 5 -11 10 -11 18 0 10 22 -10
27 -13 3 -20 14 -20 28 0 23 -29 44 -31 22 -1 -7 -4 -1 -8 13 -9 30 -4 40 9
20 7 -10 10 -11 10 -2 0 6 -9 21 -20 32 l-21 21 26 -7 c29 -7 31 1 14 59 -12
46 -30 49 -24 5 4 -29 4 -30 -4 -8 l-9 25 -1 -29 c-1 -16 -4 -27 -7 -23 -9 9
16 137 27 137 5 0 9 -7 9 -16 0 -8 5 -12 10 -9 6 3 10 1 10 -4 0 -15 35 -14
48 2 6 7 15 24 21 39 8 22 7 26 -7 23 -9 -1 -23 2 -30 8 -10 8 -12 7 -10 -2 2
-8 -5 -15 -14 -16 -11 -2 -18 3 -18 11 0 9 -4 12 -10 9 -6 -4 -10 8 -10 29 0
20 5 36 11 36 6 0 8 -8 4 -19 -3 -11 -2 -22 4 -25 16 -10 32 85 23 137 -5 26
-6 47 -1 47 5 0 9 -9 9 -20 0 -12 7 -20 16 -20 19 0 88 -47 130 -89 30 -30 97
-146 115 -200 6 -18 7 -9 4 32 -7 81 -25 109 -124 204 -47 45 -80 82 -73 83
21 0 56 -30 175 -148 94 -93 109 -105 118 -89 6 9 15 14 21 11 7 -5 8 -2 4 5
-5 8 8 31 32 59 22 26 51 70 65 97 13 28 34 59 46 69 12 11 21 26 21 34 0 8
16 45 36 83 34 64 36 74 32 132 -3 35 -13 77 -22 94 -12 23 -16 59 -16 131 0
89 -2 100 -22 119 -29 26 -117 71 -177 89 -60 18 -180 27 -209 14z m56 -297
c-10 -2 -26 -2 -35 0 -10 3 -2 5 17 5 19 0 27 -2 18 -5z m379 -165 c-3 -8 -6
-5 -6 6 -1 11 2 17 5 13 3 -3 4 -12 1 -19z m-770 -240 c-3 -8 -6 -5 -6 6 -1
11 2 17 5 13 3 -3 4 -12 1 -19z m43 -24 c0 -2 -7 -4 -15 -4 -8 0 -15 4 -15 10
0 5 7 7 15 4 8 -4 15 -8 15 -10z m-69 -17 c-10 -9 -11 -8 -5 6 3 10 9 15 12
12 3 -3 0 -11 -7 -18z m120 -141 c-7 -44 -15 -88 -17 -98 -5 -16 -27 -19 -40
-5 -4 4 -12 2 -19 -3 -8 -7 -19 -2 -35 15 -13 14 -31 25 -39 24 -12 0 -13 -2
-2 -6 16 -7 70 -65 71 -76 0 -5 -14 6 -32 23 -17 17 -42 38 -55 47 -12 8 -23
20 -23 27 0 7 3 6 8 -2 5 -7 16 -10 25 -6 9 3 14 11 11 16 -8 13 56 79 69 71
6 -4 7 -1 2 6 -4 8 1 24 12 39 11 15 23 36 26 46 4 10 10 16 13 13 3 -3 -1
-18 -10 -35 -8 -16 -12 -33 -8 -36 3 -4 2 -10 -4 -14 -5 -4 -7 -20 -3 -37 5
-24 7 -25 8 -7 0 12 6 22 11 22 12 0 9 32 -3 41 -4 3 0 12 9 20 11 9 15 9 10
2 -4 -7 -2 -21 4 -30 9 -14 10 -3 7 47 -4 62 -4 63 6 21 7 -31 7 -65 -2 -125z
m416 144 c44 -26 59 -56 43 -85 l-12 -23 -48 24 c-55 27 -82 54 -56 54 10 0
16 9 16 25 0 30 14 31 57 5z m-367 -26 c0 -26 -17 -33 -26 -9 -8 20 3 48 16
40 5 -3 10 -17 10 -31z m-205 -14 c3 -6 -1 -7 -9 -4 -10 4 -16 1 -16 -7 0 -7
-3 -10 -6 -6 -7 7 4 27 16 27 5 0 12 -4 15 -10z m652 -22 c-3 -7 -5 -2 -5 12
0 14 2 19 5 13 2 -7 2 -19 0 -25z m-397 -145 c-11 -17 -11 -17 -6 0 3 10 6 24
7 30 0 9 2 9 5 0 3 -7 0 -20 -6 -30z m-92 -258 c-3 -3 -9 2 -12 12 -6 14 -5
15 5 6 7 -7 10 -15 7 -18z m-616 -185 c-2 -42 -8 -68 -13 -64 -14 8 -9 134 5
134 7 0 10 -24 8 -70z m5 -112 c-3 -8 -6 -5 -6 6 -1 11 2 17 5 13 3 -3 4 -12
1 -19z m-513 -284 c-5 -21 -4 -25 6 -19 10 6 12 4 7 -8 -4 -10 -1 -17 5 -17 6
0 9 -2 6 -5 -3 -3 -13 -3 -22 1 -16 6 -21 30 -10 58 10 26 15 18 8 -10z m535
-34 c-3 -83 -19 -87 -19 -6 0 40 4 66 11 66 6 0 9 -23 8 -60z m-493 9 c1 -25
-1 -28 -8 -15 -5 10 -7 24 -4 32 8 21 11 17 12 -17z m31 -45 c-3 -3 -12 -4
-19 -1 -8 3 -5 6 6 6 11 1 17 -2 13 -5z m50 -16 c-3 -8 -6 -5 -6 6 -1 11 2 17
5 13 3 -3 4 -12 1 -19z m-67 -19 c0 -5 -4 -9 -8 -9 -5 0 -9 7 -9 15 0 8 4 12
9 9 4 -3 8 -9 8 -15z m50 -68 c0 -5 3 -16 6 -25 3 -9 2 -16 -4 -16 -5 0 -12
11 -14 25 -3 14 -1 25 3 25 5 0 9 -4 9 -9z m-127 -71 c-6 -22 -18 -26 -29 -9
-3 6 0 15 7 20 22 14 28 11 22 -11z m758 -217 c-26 -3 -31 -7 -20 -14 10 -6 4
-9 -21 -9 -25 0 -31 3 -20 10 10 6 -5 10 -50 13 -39 2 -23 3 40 3 58 1 90 -1
71 -3z m-218 -23 c-7 -25 -23 -27 -18 -2 2 9 4 18 4 20 1 1 5 2 10 2 5 0 7 -9
4 -20z m287 -5 c8 -2 18 -4 23 -4 4 -1 7 -33 7 -72 0 -64 -1 -69 -16 -55 -8 9
-25 16 -37 15 -20 -1 -20 -2 3 -9 14 -4 19 -8 11 -9 -11 -1 -11 -4 -1 -16 7
-9 19 -14 27 -11 15 6 18 -20 3 -29 -5 -3 -17 -2 -25 3 -27 15 -73 2 -78 -22
-4 -17 -4 -17 -6 5 -1 17 7 32 22 42 l22 16 -25 1 -25 2 25 9 c17 6 6 7 -37 4
-41 -3 -63 -1 -63 6 0 6 -20 10 -47 9 -27 -1 -99 -1 -160 -1 l-113 1 0 48 c0
32 4 49 13 50 6 1 26 4 42 6 27 5 27 4 -7 -10 -25 -11 -38 -23 -38 -35 0 -21
34 -27 45 -8 4 6 26 10 49 8 79 -4 106 0 100 15 -8 20 47 41 76 29 10 -4 6 -8
-15 -13 -25 -6 -22 -8 20 -8 28 0 44 2 38 5 -7 2 -13 9 -13 15 0 7 26 9 78 5
72 -6 76 -5 57 10 -19 15 -19 15 5 9 14 -4 32 -9 40 -11z m-316 -21 c22 -8 10
-24 -17 -23 -20 1 -21 2 -2 7 l20 5 -20 8 c-11 4 -15 8 -8 8 6 1 18 -2 27 -5z"/>
<path d="M1275 1751 c-3 -6 -10 -9 -15 -6 -5 3 -12 0 -16 -6 -4 -8 -3 -9 4 -5
7 4 12 2 12 -4 0 -7 7 -4 16 5 9 9 14 18 11 21 -3 3 -8 0 -12 -5z"/>
<path d="M1250 1700 c0 -5 5 -10 11 -10 5 0 7 5 4 10 -3 6 -8 10 -11 10 -2 0
-4 -4 -4 -10z"/>
<path d="M1252 1663 c4 -20 22 -21 26 -2 2 9 -4 16 -13 16 -9 0 -15 -7 -13
-14z"/>
<path d="M770 300 c0 -5 5 -10 11 -10 5 0 7 5 4 10 -3 6 -8 10 -11 10 -2 0 -4
-4 -4 -10z"/>
<path d="M806 294 c-4 -10 -1 -14 6 -12 15 5 23 28 10 28 -5 0 -13 -7 -16 -16z"/>
<path d="M844 301 c-13 -13 2 -19 53 -20 34 0 53 3 47 8 -10 10 -92 20 -100
12z"/>
<path d="M978 283 c12 -2 30 -2 40 0 9 3 -1 5 -23 4 -22 0 -30 -2 -17 -4z"/>
<path d="M583 2605 c0 -8 4 -12 9 -9 5 3 6 10 3 15 -9 13 -12 11 -12 -6z"/>
<path d="M2213 2540 c0 -41 2 -58 4 -37 2 20 2 54 0 75 -2 20 -4 3 -4 -38z"/>
<path d="M2940 2570 c-20 -12 -10 -19 14 -10 11 3 15 9 10 13 -6 3 -16 2 -24
-3z"/>
<path d="M2736 2469 c-22 -21 -44 -39 -48 -39 -4 0 -8 -4 -8 -8 0 -16 69 0 73
17 3 9 5 -17 6 -56 1 -43 -3 -73 -9 -73 -11 0 -12 -63 0 -100 7 -24 7 -23 15
12 4 20 8 94 9 163 0 69 1 125 1 124 0 0 -18 -18 -39 -40z"/>
<path d="M186 2464 c-3 -9 -6 -31 -6 -50 l0 -34 78 2 77 2 -67 3 -68 4 0 39 0
39 78 4 77 3 -81 2 c-67 2 -83 -1 -88 -14z"/>
<path d="M520 2468 c0 -5 29 -8 64 -8 36 0 67 3 69 8 3 4 -26 7 -64 7 -38 0
-69 -3 -69 -7z"/>
<path d="M720 2431 c0 -27 5 -53 11 -56 7 -5 9 11 8 45 -3 67 -19 76 -19 11z"/>
<path d="M2948 2473 c12 -2 30 -2 40 0 9 3 -1 5 -23 4 -22 0 -30 -2 -17 -4z"/>
<path d="M0 2420 c0 -27 5 -50 10 -50 6 0 10 23 10 50 0 28 -4 50 -10 50 -5 0
-10 -22 -10 -50z"/>
<path d="M490 2425 c0 -35 4 -45 16 -45 12 0 14 3 6 13 -5 6 -9 27 -7 45 1 17
-1 32 -6 32 -5 0 -9 -20 -9 -45z"/>
<path d="M71 2438 c1 -7 5 -24 9 -38 8 -24 8 -24 9 7 1 17 -3 35 -9 38 -5 3
-10 0 -9 -7z"/>
<path d="M352 2405 c0 -16 2 -22 5 -12 2 9 2 23 0 30 -3 6 -5 -1 -5 -18z"/>
<path d="M782 2350 c0 -14 2 -19 5 -12 2 6 2 18 0 25 -3 6 -5 1 -5 -13z"/>
<path d="M834 2352 c-6 -21 -7 -21 -20 -5 -11 15 -12 0 -7 -97 3 -63 7 -117 9
-119 2 -2 4 33 4 78 0 52 4 80 10 76 6 -3 10 -29 10 -56 0 -31 4 -48 10 -44
13 8 13 155 0 175 -8 12 -11 11 -16 -8z"/>
<path d="M557 2353 c-4 -3 -7 -18 -6 -32 0 -14 3 -20 6 -12 5 11 7 11 14 0 7
-11 9 -11 9 3 0 9 -6 19 -12 21 -10 4 -10 6 0 6 6 1 12 6 12 11 0 11 -13 13
-23 3z"/>
<path d="M243 2334 c-4 -11 -1 -20 6 -22 11 -4 11 -6 0 -13 -10 -6 -6 -9 14
-9 20 0 27 5 27 20 0 10 -9 24 -20 30 -16 9 -22 7 -27 -6z"/>
<path d="M943 2343 c9 -2 25 -2 35 0 9 3 1 5 -18 5 -19 0 -27 -2 -17 -5z"/>
<path d="M2938 2333 c7 -3 16 -2 19 1 4 3 -2 6 -13 5 -11 0 -14 -3 -6 -6z"/>
<path d="M1120 2295 c0 -32 2 -35 15 -21 8 8 15 17 15 21 0 4 -7 13 -15 21
-13 14 -15 11 -15 -21z"/>
<path d="M2632 2310 c0 -14 2 -19 5 -12 2 6 2 18 0 25 -3 6 -5 1 -5 -13z"/>
<path d="M772 2300 c0 -14 2 -19 5 -12 2 6 2 18 0 25 -3 6 -5 1 -5 -13z"/>
<path d="M2991 2294 c0 -11 3 -14 6 -6 3 7 2 16 -1 19 -3 4 -6 -2 -5 -13z"/>
<path d="M490 2220 c1 -37 3 -42 11 -27 6 10 9 27 6 38 -5 18 1 19 76 20 94 1
85 6 -20 11 l-73 4 0 -46z"/>
<path d="M1295 2229 c-16 -22 -49 -52 -74 -67 -48 -27 -98 -62 -89 -62 11 0
123 71 146 92 22 21 58 78 49 78 -3 0 -17 -18 -32 -41z"/>
<path d="M1575 2247 c8 -4 19 -6 24 -2 5 3 11 0 13 -7 5 -14 38 -4 38 11 0 6
-20 10 -45 9 -30 -2 -40 -5 -30 -11z"/>
<path d="M1820 2251 c-12 -8 -12 -11 4 -17 11 -4 21 -2 26 6 5 9 12 6 24 -11
l17 -24 -3 25 c-3 27 -40 38 -68 21z"/>
<path d="M1902 2240 c0 -14 2 -19 5 -12 2 6 2 18 0 25 -3 6 -5 1 -5 -13z"/>
<path d="M161 2246 c12 -10 60 -16 54 -6 -3 5 -18 10 -32 10 -15 0 -24 -2 -22
-4z"/>
<path d="M237 2243 c-4 -3 -7 -11 -7 -17 0 -6 5 -4 10 4 7 12 11 8 16 -17 8
-42 34 -44 34 -2 0 17 4 28 10 24 6 -3 10 -17 10 -31 0 -20 5 -24 28 -24 23 1
24 2 10 11 -10 5 -18 17 -18 24 0 21 18 19 23 -2 3 -11 5 -7 6 10 1 26 0 27
-57 27 -32 0 -62 -3 -65 -7z m40 -35 c-3 -8 -6 -5 -6 6 -1 11 2 17 5 13 3 -3
4 -12 1 -19z"/>
<path d="M12 2230 c17 -11 14 -49 -6 -62 -6 -5 -1 -8 12 -8 19 0 22 5 22 40 0
35 -3 40 -22 40 -20 -1 -21 -2 -6 -10z"/>
<path d="M529 2213 c5 -26 6 -26 9 -5 5 31 32 28 32 -4 0 -20 4 -25 16 -20 9
3 17 6 19 6 2 0 1 9 -2 20 -4 14 0 20 12 20 12 0 15 -6 10 -22 -4 -16 -3 -19
3 -9 8 11 10 11 15 0 3 -8 6 -2 6 14 1 27 0 27 -63 27 l-63 0 6 -27z"/>
<path d="M201 2194 c0 -11 3 -14 6 -6 3 7 2 16 -1 19 -3 4 -6 -2 -5 -13z"/>
<path d="M1150 2199 c0 -5 5 -7 10 -4 6 3 10 8 10 11 0 2 -4 4 -10 4 -5 0 -10
-5 -10 -11z"/>
<path d="M920 2190 c0 -5 5 -10 11 -10 5 0 7 5 4 10 -3 6 -8 10 -11 10 -2 0
-4 -4 -4 -10z"/>
<path d="M982 2163 c2 -21 8 -38 13 -38 6 0 11 17 13 38 3 29 0 37 -13 37 -13
0 -16 -8 -13 -37z"/>
<path d="M1033 2185 c0 -8 4 -12 9 -9 5 3 6 10 3 15 -9 13 -12 11 -12 -6z"/>
<path d="M1140 2169 c0 -5 5 -7 10 -4 6 3 10 8 10 11 0 2 -4 4 -10 4 -5 0 -10
-5 -10 -11z"/>
<path d="M846 2120 c8 -56 14 -64 14 -19 0 19 -5 41 -10 49 -7 10 -8 1 -4 -30z"/>
<path d="M1741 2141 c-1 -19 -5 -23 -26 -19 -14 3 -25 1 -25 -3 0 -5 6 -9 13
-10 6 0 20 -2 29 -4 9 -2 25 6 35 18 16 18 16 20 1 14 -11 -4 -18 0 -21 11 -3
12 -5 9 -6 -7z"/>
<path d="M212 2113 c-69 -4 -73 -5 -70 -26 4 -29 38 -36 38 -8 0 12 5 21 10
21 6 0 10 -16 10 -35 0 -24 5 -35 15 -35 10 0 15 11 15 35 0 19 5 35 10 35 6
0 10 -16 10 -35 0 -24 5 -35 15 -35 10 0 15 11 15 35 0 27 4 35 18 35 15 0 17
-6 14 -35 -3 -21 0 -35 7 -35 6 0 11 17 11 40 0 28 4 38 13 34 8 -3 11 -17 9
-39 -3 -28 -1 -35 12 -35 14 0 17 8 14 42 l-3 43 -45 1 c-25 0 -78 -1 -118 -3z"/>
<path d="M560 2080 c0 -22 2 -40 4 -40 2 0 11 -2 19 -5 15 -6 19 13 10 58 -8
44 -33 34 -33 -13z"/>
<path d="M613 2113 c9 -2 23 -2 30 0 6 3 -1 5 -18 5 -16 0 -22 -2 -12 -5z"/>
<path d="M0 2065 c0 -41 2 -45 25 -45 22 0 25 4 25 39 0 26 -5 41 -16 45 -29
11 -34 6 -34 -39z"/>
<path d="M120 2065 c0 -27 3 -45 7 -41 7 7 5 77 -3 85 -2 2 -4 -17 -4 -44z"/>
<path d="M510 2088 c0 -4 5 -8 10 -8 12 0 9 -22 -5 -32 -6 -4 -2 -8 8 -8 12 0
17 8 17 28 0 19 -5 29 -15 29 -8 0 -15 -4 -15 -9z"/>
<path d="M620 2090 c0 -5 9 -10 20 -10 11 0 20 5 20 10 0 6 -9 10 -20 10 -11
0 -20 -4 -20 -10z"/>
<path d="M3230 2044 c0 -16 5 -36 10 -44 6 -10 7 -2 3 25 -7 49 -13 58 -13 19z"/>
<path d="M401 2053 c-1 -6 -4 -20 -7 -30 -5 -17 -5 -17 6 0 6 10 9 23 6 30 -3
9 -5 9 -5 0z"/>
<path d="M625 2050 c-3 -5 1 -10 9 -10 8 0 18 5 21 10 3 6 -1 10 -9 10 -8 0
-18 -4 -21 -10z"/>
<path d="M942 2030 c0 -19 2 -27 5 -17 2 9 2 25 0 35 -3 9 -5 1 -5 -18z"/>
<path d="M1720 2050 c-8 -5 -28 -10 -45 -11 -29 -2 -29 -2 5 -8 25 -4 34 -11
32 -23 -2 -14 2 -15 27 -8 16 4 37 13 47 18 15 9 14 12 -14 26 -36 19 -33 18
-52 6z"/>
<path d="M2866 2051 c5 -5 27 -6 49 -1 l40 8 -49 1 c-30 1 -46 -3 -40 -8z"/>
<path d="M3321 2013 c0 -26 3 -42 6 -35 2 6 11 12 19 12 8 0 14 -6 14 -12 0
-7 5 -5 11 5 6 10 9 30 7 45 -2 21 -9 28 -30 30 -27 3 -28 2 -27 -45z"/>
<path d="M853 1980 c0 -41 2 -58 4 -37 2 20 2 54 0 75 -2 20 -4 3 -4 -38z"/>
<path d="M158 2033 c7 -3 16 -2 19 1 4 3 -2 6 -13 5 -11 0 -14 -3 -6 -6z"/>
<path d="M471 1988 c-1 -26 4 -50 9 -53 12 -8 12 52 0 80 -6 15 -9 8 -9 -27z"/>
<path d="M3012 2005 c0 -16 2 -22 5 -12 2 9 2 23 0 30 -3 6 -5 -1 -5 -18z"/>
<path d="M661 1997 c-6 -8 -22 -12 -36 -9 -43 8 -75 -6 -75 -32 0 -18 -7 -26
-22 -29 -14 -3 -9 -5 15 -6 35 -1 37 1 37 30 0 20 4 29 13 27 17 -6 21 -39 5
-49 -8 -6 2 -9 30 -9 35 0 42 -3 42 -20 0 -11 5 -20 10 -20 6 0 10 11 10 25 0
18 -7 26 -25 31 -31 8 -32 20 -2 44 12 10 19 21 16 24 -3 4 -11 0 -18 -7z"/>
<path d="M386 1973 c3 -21 2 -33 -5 -33 -6 0 -11 9 -11 20 0 11 -6 20 -12 20
-8 0 -13 -13 -13 -29 0 -23 5 -31 23 -34 13 -3 22 1 22 9 0 7 4 14 8 16 5 2 3
17 -5 33 l-13 30 6 -32z"/>
<path d="M200 1951 c0 -33 15 -39 83 -32 33 3 37 6 37 32 0 29 0 29 -60 29
-60 0 -60 0 -60 -29z m100 -1 c0 -14 -7 -20 -23 -20 -16 0 -23 6 -24 20 -1 15
4 20 23 20 17 0 24 -5 24 -20z"/>
<path d="M4 1953 c3 -21 26 -30 26 -10 0 9 6 18 13 20 6 3 0 6 -15 6 -19 1
-26 -3 -24 -16z"/>
<path d="M428 1935 c-6 -43 -3 -54 10 -39 5 5 5 25 2 44 l-6 35 -6 -40z"/>
<path d="M711 1944 c0 -11 3 -14 6 -6 3 7 2 16 -1 19 -3 4 -6 -2 -5 -13z"/>
<path d="M124 1915 c-11 -33 -9 -38 13 -60 l25 -23 -22 -7 c-12 -4 -19 -9 -17
-12 3 -2 15 0 26 7 17 9 19 15 11 30 -6 12 -7 20 -1 20 5 0 8 11 7 24 -2 18 1
23 12 18 11 -4 13 -1 8 7 -5 7 -17 11 -27 8 -11 -3 -19 1 -21 10 -2 8 -8 -2
-14 -22z"/>
<path d="M2952 1931 c-11 -7 -11 -9 1 -14 9 -3 18 1 21 9 6 16 -2 18 -22 5z"/>
<path d="M3100 1895 c0 -38 3 -45 20 -45 17 0 20 6 19 38 0 20 -3 31 -6 25 -8
-21 -25 -14 -18 7 4 11 2 20 -4 20 -6 0 -11 -20 -11 -45z m30 -15 c0 -5 -4
-10 -10 -10 -5 0 -10 5 -10 10 0 6 5 10 10 10 6 0 10 -4 10 -10z"/>
<path d="M475 1910 c10 -11 20 -20 23 -20 3 0 -3 9 -13 20 -10 11 -20 20 -23
20 -3 0 3 -9 13 -20z"/>
<path d="M2858 1885 l-3 -45 35 1 c19 1 27 3 17 6 -14 4 -17 13 -14 44 3 32 1
39 -13 39 -14 0 -19 -10 -22 -45z"/>
<path d="M3220 1910 c0 -11 7 -20 15 -20 8 0 15 9 15 20 0 11 -7 20 -15 20 -8
0 -15 -9 -15 -20z"/>
<path d="M3388 1923 c6 -2 18 -2 25 0 6 3 1 5 -13 5 -14 0 -19 -2 -12 -5z"/>
<path d="M1975 1909 c-4 -6 -5 -12 -2 -15 2 -3 7 2 10 11 7 17 1 20 -8 4z"/>
<path d="M3161 1894 c0 -11 3 -14 6 -6 3 7 2 16 -1 19 -3 4 -6 -2 -5 -13z"/>
<path d="M3388 1903 c7 -3 16 -2 19 1 4 3 -2 6 -13 5 -11 0 -14 -3 -6 -6z"/>
<path d="M2991 1884 c0 -11 3 -14 6 -6 3 7 2 16 -1 19 -3 4 -6 -2 -5 -13z"/>
<path d="M3451 1884 c0 -11 3 -14 6 -6 3 7 2 16 -1 19 -3 4 -6 -2 -5 -13z"/>
<path d="M3377 1877 c-11 -29 -9 -43 4 -30 6 6 9 19 7 29 -3 18 -4 18 -11 1z"/>
<path d="M818 1872 c-13 -2 -18 -13 -18 -38 0 -19 4 -34 9 -34 5 0 12 -10 14
-22 3 -16 5 -12 6 11 0 19 8 42 16 51 12 14 13 19 3 27 -7 5 -21 8 -30 5z"/>
<path d="M538 1863 c-13 -3 -18 -15 -18 -39 0 -19 5 -34 11 -34 5 0 7 5 4 10
-3 6 1 10 9 10 11 0 16 9 16 30 0 17 -1 29 -2 29 -2 -1 -11 -3 -20 -6z"/>
<path d="M671 1838 c1 -18 3 -25 6 -15 6 24 17 21 33 -8 19 -36 30 -31 30 15
0 39 -1 40 -35 40 -33 0 -35 -2 -34 -32z"/>
<path d="M2790 1803 c0 -42 4 -73 10 -73 13 0 13 110 0 130 -7 10 -10 -7 -10
-57z"/>
<path d="M3345 1850 c-3 -5 -1 -10 4 -10 6 0 11 5 11 10 0 6 -2 10 -4 10 -3 0
-8 -4 -11 -10z"/>
<path d="M0 1841 c0 -5 8 -12 18 -14 16 -4 16 -5 0 -6 -19 -1 -27 -51 -8 -51
6 0 10 9 10 19 0 11 4 23 10 26 18 11 11 35 -10 35 -11 0 -20 -4 -20 -9z"/>
<path d="M330 1815 c0 -31 3 -35 25 -35 17 0 25 6 26 18 0 9 2 25 4 35 2 13
-4 17 -26 17 -26 0 -29 -3 -29 -35z"/>
<path d="M1889 1778 c-22 -23 -47 -54 -55 -69 -12 -24 -12 -29 4 -40 16 -13
16 -12 2 5 -14 18 -13 19 3 13 11 -4 16 -3 12 3 -7 11 25 70 38 70 4 0 3 -10
-3 -22 -10 -21 -10 -22 4 -5 8 11 12 25 9 33 -3 8 2 16 10 20 14 5 32 34 22
34 -3 0 -23 -19 -46 -42z"/>
<path d="M75 1797 c-24 -27 -29 -42 -8 -24 11 9 25 17 31 17 7 0 12 5 12 10 0
14 -23 12 -35 -3z"/>
<path d="M2524 1795 c-4 -8 -4 -21 -1 -29 3 -8 1 -17 -6 -20 -7 -2 -4 -5 6 -5
13 -1 17 7 17 34 0 37 -7 45 -16 20z"/>
<path d="M3438 1793 c6 -2 18 -2 25 0 6 3 1 5 -13 5 -14 0 -19 -2 -12 -5z"/>
<path d="M3430 1728 c0 -12 3 -18 7 -14 11 10 12 36 2 36 -5 0 -9 -10 -9 -22z"/>
<path d="M688 1710 c6 -39 42 -43 42 -5 0 20 5 25 25 25 16 0 25 -6 25 -15 0
-9 9 -15 21 -15 15 0 19 4 15 16 -3 9 -6 18 -6 20 0 2 -28 4 -63 4 l-64 0 5
-30z"/>
<path d="M521 1703 c0 -25 1 -26 8 -8 6 14 19 21 40 23 25 2 31 -1 31 -18 0
-11 7 -20 16 -20 10 0 14 7 12 23 -3 19 -10 22 -55 25 -52 3 -53 3 -52 -25z"/>
<path d="M327 1709 c-9 -6 -17 -14 -17 -19 0 -17 27 -11 34 6 8 22 5 25 -17
13z"/>
<path d="M360 1698 c0 -25 50 -25 50 0 1 15 2 15 15 -2 12 -16 15 -17 15 -4 0
9 6 19 13 22 6 2 -12 4 -40 3 -43 -2 -53 -5 -53 -19z"/>
<path d="M2387 1703 c-4 -3 -7 -11 -7 -17 0 -6 4 -5 9 3 5 8 16 11 26 7 16 -6
16 -8 3 -24 -13 -15 -13 -27 0 -99 9 -48 20 -83 26 -83 29 0 35 -23 15 -49
-20 -24 -21 -34 -14 -161 10 -182 8 -214 -16 -263 -60 -119 -98 -168 -224
-292 -72 -71 -119 -119 -104 -106 17 14 33 20 41 16 33 -19 58 -51 58 -73 0
-25 6 -26 73 -6 15 5 17 -4 19 -73 l2 -78 3 73 c5 88 25 95 34 11 3 -33 6 -42
7 -22 4 63 19 40 39 -57 16 -80 17 -100 6 -104 -16 -6 -18 -26 -2 -26 5 0 7 4
4 10 -3 5 6 12 20 16 15 4 30 16 35 28 9 21 9 21 9 -1 1 -28 9 -29 31 -3 16
18 18 19 24 4 4 -9 4 -19 1 -22 -3 -3 -5 0 -5 7 0 16 -17 5 -30 -19 -9 -16 -8
-18 5 -14 11 5 14 2 9 -12 -6 -17 -5 -17 15 1 43 42 151 260 147 299 -2 14 1
26 6 26 5 0 6 5 2 12 -4 7 -3 8 4 4 6 -4 9 -14 6 -24 -3 -9 1 -6 10 8 14 24
13 25 -12 32 -15 4 -32 15 -39 24 -6 9 -16 13 -22 9 -17 -10 -13 17 9 53 19
30 23 32 77 32 41 0 54 3 43 10 -10 6 -11 10 -3 10 7 0 22 17 33 37 11 21 45
73 75 116 30 43 53 83 49 88 -3 5 -10 7 -15 4 -5 -4 -9 -1 -9 5 0 7 8 9 21 5
15 -5 19 -4 15 4 -4 6 -16 11 -28 11 -19 0 -20 4 -14 48 16 109 16 109 42 104
23 -4 24 -2 24 44 0 27 -6 72 -14 101 -8 28 -11 55 -7 58 3 4 -3 5 -14 3 -28
-4 -35 -17 -24 -46 8 -22 8 -23 -6 -12 -8 7 -15 26 -15 42 0 61 -124 147 -217
149 l-38 1 39 9 c22 5 42 6 45 1 6 -9 103 -43 108 -38 3 3 -14 11 -67 35 -14
6 -17 10 -8 8 9 -1 16 2 15 7 -1 6 -16 10 -33 10 -47 1 -169 117 -147 140 3 3
-27 6 -69 6 -41 0 -78 -3 -81 -7z m133 -198 c-19 -14 -36 -25 -39 -25 -11 1
50 50 62 50 6 0 -4 -11 -23 -25z m347 -217 c-3 -8 -6 -5 -6 6 -1 11 2 17 5 13
3 -3 4 -12 1 -19z m-17 -264 c0 -8 -60 -94 -66 -94 -3 0 9 20 25 44 17 24 27
46 24 50 -4 3 -1 6 5 6 7 0 12 -3 12 -6z m1 -47 c-10 -9 -11 -8 -5 6 3 10 9
15 12 12 3 -3 0 -11 -7 -18z m-172 -194 c-12 -15 -12 -16 4 -10 9 3 17 2 17
-3 0 -6 -9 -10 -20 -10 -23 0 -26 10 -8 28 18 18 22 15 7 -5z m-132 -227 c-3
-7 0 -20 6 -27 10 -11 9 -11 -5 0 -15 11 -15 41 -1 41 3 0 3 -6 0 -14z m-46
-99 c-10 -9 -11 -8 -5 6 3 10 9 15 12 12 3 -3 0 -11 -7 -18z m-25 -47 c0 -12
-4 -16 -9 -11 -5 5 -6 14 -3 20 10 15 12 14 12 -9z m-21 -30 c-3 -5 2 -10 11
-10 10 0 15 -3 11 -6 -10 -10 -39 5 -32 16 3 5 8 10 11 10 3 0 2 -4 -1 -10z
m-35 -46 c-18 -21 -24 -10 -8 15 7 12 14 17 16 11 2 -6 -2 -17 -8 -26z"/>
<path d="M3112 1701 c-9 -5 -3 -8 18 -9 17 0 28 4 25 9 -8 11 -26 11 -43 0z"/>
<path d="M83 1679 c-4 -16 -8 -17 -14 -7 -5 8 -9 -12 -9 -49 0 -40 4 -63 11
-63 8 0 8 -4 0 -14 -8 -9 -8 -16 -2 -20 6 -4 8 -13 4 -21 -3 -8 0 -15 6 -15 6
0 11 -5 11 -11 0 -5 -4 -7 -10 -4 -15 9 -12 -25 4 -40 12 -12 15 -12 19 0 5
11 10 198 8 253 -1 20 -22 14 -28 -9z"/>
<path d="M142 1688 c-18 -18 -14 -38 8 -38 21 0 26 16 12 37 -6 10 -11 10 -20
1z"/>
<path d="M3053 1683 c9 -2 23 -2 30 0 6 3 -1 5 -18 5 -16 0 -22 -2 -12 -5z"/>
<path d="M778 1673 c7 -3 16 -2 19 1 4 3 -2 6 -13 5 -11 0 -14 -3 -6 -6z"/>
<path d="M1503 1618 c0 -51 1 -56 6 -23 l6 40 19 -63 c11 -34 21 -60 23 -58 6
6 -34 147 -45 158 -5 5 -9 -20 -9 -54z"/>
<path d="M1810 1657 c0 -19 16 -31 24 -18 3 5 -1 14 -9 21 -12 10 -15 10 -15
-3z"/>
<path d="M3332 1625 c0 -16 2 -22 5 -12 2 9 2 23 0 30 -3 6 -5 -1 -5 -18z"/>
<path d="M3192 1615 c-1 -16 3 -48 7 -70 l9 -40 0 40 c0 22 -4 54 -8 70 l-8
30 0 -30z"/>
<path d="M835 1610 c-3 -6 1 -7 9 -4 18 7 21 14 7 14 -6 0 -13 -4 -16 -10z"/>
<path d="M2146 1579 c-8 -42 0 -50 9 -9 4 17 5 34 2 36 -2 3 -7 -10 -11 -27z"/>
<path d="M741 1539 c-14 -39 -14 -42 -1 -34 17 11 29 41 21 54 -6 9 -12 3 -20
-20z"/>
<path d="M1681 1544 c0 -11 3 -14 6 -6 3 7 2 16 -1 19 -3 4 -6 -2 -5 -13z"/>
<path d="M1 1515 c0 -31 2 -36 9 -23 6 10 7 25 1 40 -9 20 -10 18 -10 -17z"/>
<path d="M1841 1534 c0 -11 3 -14 6 -6 3 7 2 16 -1 19 -3 4 -6 -2 -5 -13z"/>
<path d="M145 1521 c-4 -14 -3 -26 3 -30 12 -7 18 -59 9 -81 -13 -36 -16 -109
-4 -114 9 -3 9 -7 -1 -14 -18 -12 -22 -81 -5 -97 7 -8 14 -29 14 -47 1 -33 1
-33 9 7 12 59 9 229 -4 238 -8 6 -7 10 2 14 8 3 12 27 12 69 0 37 -4 63 -9 60
-5 -4 -11 0 -14 6 -2 7 -7 2 -12 -11z"/>
<path d="M2132 1495 c0 -16 2 -22 5 -12 2 9 2 23 0 30 -3 6 -5 -1 -5 -18z"/>
<path d="M2878 1513 c18 -2 45 -2 60 0 15 2 0 4 -33 4 -33 0 -45 -2 -27 -4z"/>
<path d="M1503 1445 c0 -33 2 -45 4 -27 2 18 2 45 0 60 -2 15 -4 0 -4 -33z"/>
<path d="M1560 1495 c0 -5 5 -17 10 -25 5 -8 10 -10 10 -5 0 6 -5 17 -10 25
-5 8 -10 11 -10 5z"/>
<path d="M338 1463 c-6 -22 -3 -23 40 -21 43 1 44 2 10 5 -24 3 -38 10 -40 21
-3 13 -5 12 -10 -5z"/>
<path d="M675 1440 c-3 -5 1 -10 9 -10 9 0 16 5 16 10 0 6 -4 10 -9 10 -6 0
-13 -4 -16 -10z"/>
<path d="M310 1421 c-22 -6 -23 -8 -7 -14 11 -4 23 -5 28 -1 5 3 9 -8 9 -24 0
-28 1 -29 25 -19 30 14 33 37 5 37 -11 0 -19 5 -17 11 3 15 -12 18 -43 10z"/>
<path d="M2 1390 c0 -19 2 -27 5 -17 2 9 2 25 0 35 -3 9 -5 1 -5 -18z"/>
<path d="M1713 1385 c0 -22 2 -30 4 -17 2 12 2 30 0 40 -3 9 -5 -1 -4 -23z"/>
<path d="M84 1389 c-14 -31 -18 -123 -5 -115 5 3 11 0 14 -6 3 -9 7 -7 12 5 4
9 4 25 1 34 -6 15 -8 15 -16 3 -8 -13 -10 -13 -10 2 0 9 5 18 11 20 6 2 9 21
7 43 -3 37 -4 37 -14 14z"/>
<path d="M420 1380 c0 -32 23 -42 34 -14 11 29 6 44 -14 44 -16 0 -20 -7 -20
-30z"/>
<path d="M563 1403 c-7 -3 -13 -13 -13 -23 0 -13 9 -19 35 -22 34 -4 43 5 27
28 -9 14 -34 22 -49 17z"/>
<path d="M520 1375 c0 -14 5 -25 10 -25 6 0 10 11 10 25 0 14 -4 25 -10 25 -5
0 -10 -11 -10 -25z"/>
<path d="M1492 1350 c0 -14 2 -19 5 -12 2 6 2 18 0 25 -3 6 -5 1 -5 -13z"/>
<path d="M2056 1345 c-9 -26 -7 -32 5 -12 6 10 9 21 6 23 -2 3 -7 -2 -11 -11z"/>
<path d="M1716 1314 c-3 -9 -4 -19 -1 -22 3 -3 5 1 5 9 0 11 2 11 10 -1 5 -8
10 -10 10 -5 0 6 -4 16 -9 23 -6 11 -10 10 -15 -4z"/>
<path d="M0 1265 c0 -14 4 -25 9 -25 5 0 11 11 13 25 4 17 1 25 -8 25 -8 0
-14 -11 -14 -25z"/>
<path d="M1492 1240 c0 -19 2 -27 5 -17 2 9 2 25 0 35 -3 9 -5 1 -5 -18z"/>
<path d="M2052 1255 c0 -5 6 -41 13 -80 10 -56 13 -62 13 -30 0 33 -25 141
-26 110z"/>
<path d="M1890 1217 c0 -8 7 -17 15 -21 8 -3 15 -2 15 3 0 5 -7 14 -15 21 -12
10 -15 10 -15 -3z"/>
<path d="M0 1209 c0 -5 5 -7 10 -4 5 3 10 8 10 11 0 2 -4 4 -10 4 -5 0 -10 -5
-10 -11z"/>
<path d="M1435 1170 c-3 -5 -1 -10 4 -10 6 0 11 5 11 10 0 6 -2 10 -4 10 -3 0
-8 -4 -11 -10z"/>
<path d="M1949 1123 c17 -34 35 -64 40 -67 10 -7 -46 105 -61 119 -5 6 4 -18
21 -52z"/>
<path d="M330 1039 c0 -16 19 -29 42 -29 5 0 8 10 6 22 -4 27 -48 34 -48 7z"/>
<path d="M2957 1026 c-10 -25 -9 -28 5 -20 8 5 9 2 5 -9 -4 -11 -1 -17 8 -17
8 0 21 -10 29 -22 l16 -22 0 21 c0 30 20 40 21 11 1 -47 9 -112 15 -117 4 -3
4 26 2 66 -4 58 -3 70 9 66 26 -10 2 27 -28 42 -27 15 -29 14 -44 -12 l-16
-28 6 30 c4 20 2 25 -3 16 -8 -11 -10 -11 -14 0 -3 9 -6 8 -11 -5z"/>
<path d="M1510 1027 c0 -14 31 -69 36 -64 3 3 -4 20 -15 38 -12 19 -21 30 -21
26z"/>
<path d="M206 976 c-4 -18 -2 -44 3 -57 9 -22 10 -20 12 16 1 24 3 31 6 18 6
-32 23 -28 23 5 0 15 5 33 12 40 9 9 5 12 -19 12 -27 0 -32 -4 -37 -34z"/>
<path d="M160 960 c0 -11 -6 -20 -12 -20 -9 0 -8 -4 2 -10 13 -8 13 -10 -1
-10 -17 0 -29 -19 -29 -47 0 -10 6 -14 20 -10 10 3 21 0 24 -7 2 -6 4 19 4 57
0 37 -2 67 -4 67 -2 0 -4 -9 -4 -20z"/>
<path d="M1599 911 c13 -12 28 -21 34 -21 12 0 11 0 -28 24 l-30 17 24 -20z"/>
<path d="M191 884 c0 -11 3 -14 6 -6 3 7 2 16 -1 19 -3 4 -6 -2 -5 -13z"/>
<path d="M1689 869 c46 -22 118 -27 148 -10 13 8 5 9 -32 4 -45 -5 -69 -1
-140 21 -11 3 0 -3 24 -15z"/>
<path d="M2 850 c0 -19 2 -27 5 -17 2 9 2 25 0 35 -3 9 -5 1 -5 -18z"/>
<path d="M120 836 c0 -8 5 -18 10 -21 6 -3 10 -15 10 -26 0 -10 5 -19 10 -19
6 0 10 4 10 9 0 5 3 17 6 25 5 12 2 15 -10 10 -12 -4 -16 0 -16 15 0 12 -4 21
-10 21 -5 0 -10 -6 -10 -14z"/>
<path d="M1880 794 c-33 -34 -37 -42 -17 -29 23 15 75 75 65 75 -2 0 -24 -21
-48 -46z"/>
<path d="M240 690 c-9 -6 -10 -10 -3 -10 6 0 15 5 18 10 8 12 4 12 -15 0z"/>
<path d="M1720 690 c-9 -6 -10 -10 -3 -10 6 0 15 5 18 10 8 12 4 12 -15 0z"/>
<path d="M1872 674 c-7 -8 -8 -14 -3 -14 10 0 25 19 20 25 -2 1 -10 -3 -17
-11z"/>
<path d="M2638 663 c7 -3 16 -2 19 1 4 3 -2 6 -13 5 -11 0 -14 -3 -6 -6z"/>
<path d="M2887 642 c-39 -26 -39 -27 -32 -78 6 -47 4 -53 -15 -59 -41 -13 -77
43 -47 74 10 10 8 15 -7 27 -11 8 -23 14 -27 14 -15 0 -68 -64 -74 -88 -9 -36
39 -102 74 -102 14 0 50 -9 80 -21 42 -16 56 -17 62 -8 4 7 5 18 1 24 -3 5 2
4 11 -4 13 -10 14 -17 7 -26 -9 -10 7 -13 77 -11 48 1 98 8 110 14 28 16 20
46 -21 74 -44 32 -64 58 -76 100 -10 36 -60 99 -77 97 -4 -1 -25 -13 -46 -27z
m83 -17 c0 -2 -6 -7 -12 -11 -7 -4 -10 -4 -6 1 4 4 0 14 -10 22 -15 13 -15 13
6 3 12 -6 22 -13 22 -15z m-33 -11 c3 -8 -1 -22 -8 -29 -12 -12 -14 -10 -14
15 -1 32 12 40 22 14z m9 -45 c-8 -12 -12 -29 -9 -38 3 -12 2 -12 -7 2 -9 15
-8 22 6 38 23 25 29 24 10 -2z m40 -21 c5 -7 3 -8 -6 -3 -8 5 -11 4 -6 -3 4
-6 13 -9 20 -6 9 3 17 -3 21 -15 3 -12 11 -21 16 -21 5 0 9 -9 9 -20 0 -11 -4
-20 -10 -20 -5 0 -10 -7 -10 -15 0 -16 -27 -20 -46 -7 -30 20 -38 77 -17 115
6 11 21 9 29 -5z m-170 -76 c-2 -2 -14 1 -25 8 -12 6 -21 8 -21 4 0 -4 -2 -5
-5 -2 -3 3 -3 12 1 21 5 13 9 13 30 -5 13 -12 22 -23 20 -26z m57 -7 c10 -14
13 -25 7 -25 -5 0 -10 5 -10 11 0 5 -5 7 -12 3 -7 -5 -8 -3 -3 6 6 10 4 12 -8
7 -17 -6 -23 4 -10 16 10 11 17 8 36 -18z"/>
<path d="M2690 649 c0 -5 5 -7 10 -4 6 3 10 8 10 11 0 2 -4 4 -10 4 -5 0 -10
-5 -10 -11z"/>
<path d="M1462 615 c0 -16 2 -22 5 -12 2 9 2 23 0 30 -3 6 -5 -1 -5 -18z"/>
<path d="M1270 620 c-8 -5 -10 -10 -5 -10 6 0 4 -4 -4 -9 -7 -5 -9 -11 -5 -14
5 -3 17 6 27 19 19 25 13 31 -13 14z"/>
<path d="M3 575 c0 -27 2 -38 4 -22 2 15 2 37 0 50 -2 12 -4 0 -4 -28z"/>
<path d="M1990 595 c0 -36 -82 -113 -127 -121 -6 -1 -19 -6 -28 -11 -14 -8
-12 -11 12 -21 26 -11 27 -11 9 3 -25 19 -1 20 33 1 15 -8 36 -10 63 -6 46 9
61 20 27 20 -13 1 -35 7 -49 15 -24 13 -24 14 -5 21 26 9 140 94 127 94 -5 0
-21 -9 -36 -21 l-26 -20 6 30 c4 17 4 31 0 31 -3 0 -6 -7 -6 -15z m-40 -142
c0 -3 -7 -3 -15 1 -8 3 -15 0 -15 -6 0 -6 -3 -9 -6 -5 -11 10 6 26 21 20 8 -3
15 -7 15 -10z"/>
<path d="M1685 575 c10 -16 27 -36 37 -44 11 -7 23 -23 28 -35 5 -12 9 -15 9
-6 0 8 -21 38 -46 65 -30 33 -40 40 -28 20z"/>
<path d="M1625 570 c3 -5 8 -10 11 -10 2 0 4 5 4 10 0 6 -5 10 -11 10 -5 0 -7
-4 -4 -10z"/>
<path d="M3158 563 c12 -2 30 -2 40 0 9 3 -1 5 -23 4 -22 0 -30 -2 -17 -4z"/>
<path d="M1688 523 c7 -3 16 -2 19 1 4 3 -2 6 -13 5 -11 0 -14 -3 -6 -6z"/>
<path d="M1629 493 l-24 -26 33 23 c33 25 38 30 24 30 -5 0 -19 -12 -33 -27z"/>
<path d="M1580 463 c0 -4 6 -28 14 -53 12 -41 14 -43 24 -23 16 30 15 43 -4
43 -8 0 -13 3 -11 8 3 4 -1 13 -9 20 -8 7 -14 9 -14 5z"/>
<path d="M3255 459 c-18 -3 0 -6 45 -6 76 -1 84 3 20 9 -19 2 -48 1 -65 -3z"/>
<path d="M1455 440 c-4 -6 -11 -7 -17 -4 -7 4 -8 2 -4 -4 4 -7 3 -12 -1 -12
-5 0 -17 -6 -27 -13 -17 -13 -18 -14 -2 -20 9 -4 15 -3 12 2 -3 5 3 11 14 14
11 3 20 1 20 -4 0 -5 5 -9 11 -9 5 0 7 4 4 10 -3 5 -1 19 5 30 11 20 -3 30
-15 10z"/>
<path d="M1656 435 c-19 -19 -21 -35 -5 -35 13 0 9 -20 -20 -104 -12 -33 -21
-70 -21 -84 0 -22 -3 -24 -27 -19 -16 4 -60 13 -100 22 -80 17 -162 7 -196
-23 -18 -16 -18 -15 -10 13 11 41 7 135 -6 148 -6 6 -11 7 -11 1 0 -5 -7 -63
-15 -129 -8 -65 -15 -143 -15 -172 l0 -53 454 0 455 0 6 55 c4 30 5 61 2 68
-6 15 -63 17 -84 4 -9 -6 -13 -2 -13 12 0 12 5 21 10 21 6 0 10 11 10 25 0 23
-2 24 -27 14 -16 -6 -42 -23 -58 -39 l-30 -30 3 40 c2 22 1 48 -3 58 -5 9 -10
25 -11 35 -7 34 -77 127 -96 127 -4 0 3 -21 15 -47 18 -41 21 -66 22 -176 0
-139 -3 -147 -57 -147 -33 0 -33 2 -11 36 21 32 23 170 4 228 -13 38 -113 158
-137 164 -6 2 -19 -4 -28 -13z m-28 -286 c5 -43 -37 -69 -112 -69 -38 0 -94
-10 -150 -27 l-89 -27 -18 23 c-52 64 10 106 176 120 55 5 120 8 145 7 41 -1
45 -3 48 -27z m397 -65 c-11 -21 -15 -24 -15 -10 0 15 -3 16 -15 6 -26 -21
-17 2 13 33 32 33 42 18 17 -29z m-294 -1 c13 -16 12 -17 -3 -4 -10 7 -18 15
-18 17 0 8 8 3 21 -13z"/>
<path d="M2145 429 c-4 -6 -5 -12 -2 -15 2 -3 7 2 10 11 7 17 1 20 -8 4z"/>
<path d="M2683 413 c9 -2 23 -2 30 0 6 3 -1 5 -18 5 -16 0 -22 -2 -12 -5z"/>
<path d="M1285 390 c11 -5 29 -9 40 -9 17 -1 17 1 5 9 -8 5 -26 9 -40 9 -23 0
-23 -1 -5 -9z"/>
<path d="M1415 361 c-23 -5 -26 -8 -13 -13 9 -4 24 0 35 7 10 8 16 14 13 13
-3 0 -18 -3 -35 -7z"/>
<path d="M1373 323 c9 -2 25 -2 35 0 9 3 1 5 -18 5 -19 0 -27 -2 -17 -5z"/>
<path d="M1988 264 c4 -29 7 -33 14 -21 5 11 5 24 -2 37 -15 28 -17 25 -12
-16z"/>
<path d="M2223 271 c-13 -11 -28 -30 -33 -43 -10 -21 -10 -21 -6 -1 3 15 0 20
-10 16 -11 -4 -14 -32 -14 -124 l0 -119 76 0 c69 0 75 2 69 19 -3 10 -3 25 0
33 5 14 12 13 48 -6 l42 -21 -30 -3 c-16 -2 -34 -8 -39 -13 -6 -5 34 -9 102
-8 61 0 114 4 117 9 3 4 14 6 26 3 12 -4 25 0 30 8 8 12 12 11 23 -3 11 -15
29 -18 95 -18 l81 0 0 30 c0 17 3 30 8 30 12 0 29 -14 35 -30 4 -12 6 -11 6 3
1 18 12 21 49 11 17 -5 20 -10 12 -19 -8 -10 -4 -14 16 -19 18 -5 30 -3 35 6
7 10 9 10 9 1 0 -7 9 -13 20 -13 11 0 20 5 20 11 0 8 4 8 13 1 17 -14 276 -15
293 -2 8 8 14 8 19 0 3 -6 44 -10 96 -10 l89 0 -6 26 c-5 20 -4 25 6 19 9 -6
11 1 8 29 -2 20 0 36 5 36 6 0 7 -23 4 -55 -5 -50 -4 -55 14 -55 18 0 19 8 19
115 0 96 -3 115 -15 115 -9 0 -15 -9 -15 -22 l0 -23 -18 23 c-17 22 -24 23
-248 29 -155 4 -241 3 -262 -5 -17 -6 -32 -7 -34 -2 -2 5 -65 12 -142 16
l-138 7 3 -86 c4 -82 -1 -106 -15 -71 -3 9 -9 47 -12 85 l-7 69 -101 1 c-56 0
-123 4 -151 10 -27 5 -66 11 -85 13 -19 3 -46 7 -60 10 -17 4 -33 0 -47 -13z
m972 -79 c-3 -3 -11 0 -18 7 -9 10 -8 11 6 5 10 -3 15 -9 12 -12z m-1003 -52
c-6 -43 -12 -37 -12 13 0 25 4 37 8 29 5 -7 7 -26 4 -42z m988 25 c0 -14 32
-13 78 1 6 2 19 1 27 -2 13 -5 13 -8 -1 -21 -11 -12 -18 -12 -29 -3 -8 7 -20
8 -27 4 -7 -5 -25 -9 -39 -9 -21 0 -26 5 -26 27 0 15 4 25 9 22 4 -3 8 -12 8
-19z m357 -22 c-3 -10 -5 -4 -5 12 0 17 2 24 5 18 2 -7 2 -21 0 -30z m-527
-17 c0 -24 -17 -28 -23 -6 -3 13 0 20 9 20 8 0 14 -6 14 -14z m-450 -56 c0 -5
-4 -10 -10 -10 -5 0 -10 5 -10 10 0 6 5 10 10 10 6 0 10 -4 10 -10z"/>
<path d="M1390 270 c-13 -9 -13 -10 0 -10 8 0 22 5 30 10 13 9 13 10 0 10 -8
0 -22 -5 -30 -10z"/>
<path d="M13 243 c9 -2 25 -2 35 0 9 3 1 5 -18 5 -19 0 -27 -2 -17 -5z"/>
<path d="M1100 210 c0 -13 5 -18 14 -14 8 3 12 12 9 20 -8 21 -23 17 -23 -6z"/>
<path d="M1990 210 c-9 -6 -10 -10 -3 -10 6 0 15 5 18 10 8 12 4 12 -15 0z"/>
<path d="M2093 194 c-3 -9 0 -20 8 -24 15 -10 39 6 39 26 0 19 -39 18 -47 -2z"/>
<path d="M1151 74 c0 -11 3 -14 6 -6 3 7 2 16 -1 19 -3 4 -6 -2 -5 -13z"/>
</g>
</svg>
